<svg xmlns="http://www.w3.org/2000/svg" viewBox="0 0 32 32">
  <rect width="32" height="32" fill="#fbfaf5"/>
  <path fill="#1a1a1a" transform="translate(0 2.15)"
        aria-label="O"
        d="m 21.402344,14.152092 q 0,-3.316406 -1.535157,-5.3320308 -1.535156,-2.015625 -4.031249,-2.015625 -2.390625,0 -3.820313,1.7929688 -1.417969,1.792969 -1.417969,4.851562 0,3.339844 1.546875,5.367188 1.558594,2.027344 4.042969,2.027344 2.402344,0 3.808594,-1.792969 1.40625,-1.792969 1.40625,-4.898438 z M 16.023437,5.0583425 q 1.863282,0 3.328125,0.515625 1.464844,0.5039062 2.695313,1.5703125 1.429687,1.2421875 2.203125,2.964844 0.773437,1.710937 0.773437,3.632812 0,3.820313 -2.589843,6.363281 -2.589844,2.542969 -6.480469,2.542969 -2.027344,0 -3.667969,-0.65625 -1.640625,-0.667969 -2.9062497,-1.980469 -1.171875,-1.230468 -1.7929688,-2.800781 -0.609375,-1.582031 -0.609375,-3.351562 0,-1.957032 0.7617187,-3.632813 Q 8.5117188,8.5388112 9.9765625,7.284905 11.195313,6.2302175 12.789063,5.64428 14.382813,5.0583425 16.023437,5.0583425 Z"/>
</svg>
